<mxfile host="app.diagrams.net" agent="Mozilla/5.0 (Macintosh; Intel Mac OS X 10_15_7) AppleWebKit/537.36 (KHTML, like Gecko) Chrome/131.0.0.0 Safari/537.36" version="25.0.3">
  <diagram name="第 1 页" id="tHweYyXDK1-HOi5uhsNz">
    <mxGraphModel dx="2074" dy="1045" grid="1" gridSize="10" guides="1" tooltips="1" connect="1" arrows="1" fold="1" page="1" pageScale="1" pageWidth="827" pageHeight="1169" math="0" shadow="0">
      <root>
        <mxCell id="0" />
        <mxCell id="1" parent="0" />
        <mxCell id="9IymqekHmeZptXaVo8Cj-1" value="" style="endArrow=none;html=1;rounded=0;sketch=1;hachureGap=4;jiggle=2;curveFitting=1;fontFamily=Architects Daughter;fontSource=https%3A%2F%2Ffonts.googleapis.com%2Fcss%3Ffamily%3DArchitects%2BDaughter;" edge="1" parent="1">
          <mxGeometry width="50" height="50" relative="1" as="geometry">
            <mxPoint x="80" y="120" as="sourcePoint" />
            <mxPoint x="760" y="120" as="targetPoint" />
          </mxGeometry>
        </mxCell>
        <mxCell id="9IymqekHmeZptXaVo8Cj-2" value="" style="endArrow=none;html=1;rounded=0;sketch=1;hachureGap=4;jiggle=2;curveFitting=1;fontFamily=Architects Daughter;fontSource=https%3A%2F%2Ffonts.googleapis.com%2Fcss%3Ffamily%3DArchitects%2BDaughter;" edge="1" parent="1">
          <mxGeometry width="50" height="50" relative="1" as="geometry">
            <mxPoint x="80" y="120" as="sourcePoint" />
            <mxPoint x="80" y="1040" as="targetPoint" />
          </mxGeometry>
        </mxCell>
        <mxCell id="9IymqekHmeZptXaVo8Cj-3" value="" style="endArrow=none;html=1;rounded=0;sketch=1;hachureGap=4;jiggle=2;curveFitting=1;fontFamily=Architects Daughter;fontSource=https%3A%2F%2Ffonts.googleapis.com%2Fcss%3Ffamily%3DArchitects%2BDaughter;" edge="1" parent="1">
          <mxGeometry width="50" height="50" relative="1" as="geometry">
            <mxPoint x="760" y="120" as="sourcePoint" />
            <mxPoint x="760" y="1040" as="targetPoint" />
          </mxGeometry>
        </mxCell>
        <mxCell id="9IymqekHmeZptXaVo8Cj-4" value="" style="endArrow=none;html=1;rounded=0;sketch=1;hachureGap=4;jiggle=2;curveFitting=1;fontFamily=Architects Daughter;fontSource=https%3A%2F%2Ffonts.googleapis.com%2Fcss%3Ffamily%3DArchitects%2BDaughter;" edge="1" parent="1">
          <mxGeometry width="50" height="50" relative="1" as="geometry">
            <mxPoint x="80" y="1040" as="sourcePoint" />
            <mxPoint x="760" y="1040" as="targetPoint" />
          </mxGeometry>
        </mxCell>
        <mxCell id="9IymqekHmeZptXaVo8Cj-5" value="直播技术实现原理" style="text;html=1;align=center;verticalAlign=middle;whiteSpace=wrap;rounded=0;fontFamily=Architects Daughter;fontSource=https%3A%2F%2Ffonts.googleapis.com%2Fcss%3Ffamily%3DArchitects%2BDaughter;" vertex="1" parent="1">
          <mxGeometry x="334" y="70" width="160" height="30" as="geometry" />
        </mxCell>
        <mxCell id="9IymqekHmeZptXaVo8Cj-6" value="" style="rounded=0;whiteSpace=wrap;html=1;hachureGap=4;fontFamily=Architects Daughter;fontSource=https%3A%2F%2Ffonts.googleapis.com%2Fcss%3Ffamily%3DArchitects%2BDaughter;fillColor=#cce5ff;strokeColor=#36393d;" vertex="1" parent="1">
          <mxGeometry x="289" y="150" width="249" height="110" as="geometry" />
        </mxCell>
        <mxCell id="9IymqekHmeZptXaVo8Cj-7" value="视频数据采集" style="text;html=1;align=center;verticalAlign=middle;whiteSpace=wrap;rounded=0;fontFamily=Helvetica;fontStyle=1;fontSize=16;" vertex="1" parent="1">
          <mxGeometry x="349" y="160" width="130" height="30" as="geometry" />
        </mxCell>
        <mxCell id="9IymqekHmeZptXaVo8Cj-8" value="" style="rounded=0;whiteSpace=wrap;html=1;hachureGap=4;fontFamily=Architects Daughter;fontSource=https%3A%2F%2Ffonts.googleapis.com%2Fcss%3Ffamily%3DArchitects%2BDaughter;fillColor=#f5f5f5;fontColor=#333333;strokeColor=#666666;sketch=1;curveFitting=1;jiggle=2;" vertex="1" parent="1">
          <mxGeometry x="140" y="370" width="600" height="170" as="geometry" />
        </mxCell>
        <mxCell id="9IymqekHmeZptXaVo8Cj-9" value="" style="html=1;verticalLabelPosition=bottom;align=center;labelBackgroundColor=#ffffff;verticalAlign=top;strokeWidth=2;strokeColor=#0080F0;shadow=1;dashed=0;shape=mxgraph.ios7.icons.microphone;hachureGap=4;fontFamily=Architects Daughter;fontSource=https%3A%2F%2Ffonts.googleapis.com%2Fcss%3Ffamily%3DArchitects%2BDaughter;" vertex="1" parent="1">
          <mxGeometry x="310" y="190" width="21" height="50" as="geometry" />
        </mxCell>
        <mxCell id="9IymqekHmeZptXaVo8Cj-10" value="音频&lt;br&gt;采集" style="text;html=1;align=center;verticalAlign=middle;resizable=0;points=[];autosize=1;strokeColor=none;fillColor=none;fontFamily=Architects Daughter;fontSource=https%3A%2F%2Ffonts.googleapis.com%2Fcss%3Ffamily%3DArchitects%2BDaughter;" vertex="1" parent="1">
          <mxGeometry x="331" y="195" width="50" height="40" as="geometry" />
        </mxCell>
        <mxCell id="9IymqekHmeZptXaVo8Cj-11" value="" style="pointerEvents=1;shadow=1;dashed=0;html=1;strokeColor=none;fillColor=#505050;labelPosition=center;verticalLabelPosition=bottom;verticalAlign=top;outlineConnect=0;align=center;shape=mxgraph.office.devices.video_camera;hachureGap=4;fontFamily=Architects Daughter;fontSource=https%3A%2F%2Ffonts.googleapis.com%2Fcss%3Ffamily%3DArchitects%2BDaughter;" vertex="1" parent="1">
          <mxGeometry x="420" y="202.5" width="52" height="25" as="geometry" />
        </mxCell>
        <mxCell id="9IymqekHmeZptXaVo8Cj-12" value="图像&lt;br&gt;采集" style="text;html=1;align=center;verticalAlign=middle;resizable=0;points=[];autosize=1;strokeColor=none;fillColor=none;fontFamily=Architects Daughter;fontSource=https%3A%2F%2Ffonts.googleapis.com%2Fcss%3Ffamily%3DArchitects%2BDaughter;" vertex="1" parent="1">
          <mxGeometry x="473" y="195" width="50" height="40" as="geometry" />
        </mxCell>
        <mxCell id="9IymqekHmeZptXaVo8Cj-13" value="" style="endArrow=none;html=1;rounded=0;hachureGap=4;fontFamily=Architects Daughter;fontSource=https%3A%2F%2Ffonts.googleapis.com%2Fcss%3Ffamily%3DArchitects%2BDaughter;fillColor=#dae8fc;strokeColor=#6c8ebf;flowAnimation=1;" edge="1" parent="1">
          <mxGeometry width="50" height="50" relative="1" as="geometry">
            <mxPoint x="120" y="1000" as="sourcePoint" />
            <mxPoint x="120" y="160" as="targetPoint" />
          </mxGeometry>
        </mxCell>
        <mxCell id="9IymqekHmeZptXaVo8Cj-14" value="秒级延迟" style="edgeLabel;html=1;align=center;verticalAlign=middle;resizable=0;points=[];sketch=1;hachureGap=4;jiggle=2;curveFitting=1;fontFamily=Helvetica;fontStyle=1;fontColor=#3399FF;" vertex="1" connectable="0" parent="9IymqekHmeZptXaVo8Cj-13">
          <mxGeometry x="0.0119" y="4" relative="1" as="geometry">
            <mxPoint as="offset" />
          </mxGeometry>
        </mxCell>
        <mxCell id="9IymqekHmeZptXaVo8Cj-15" value="&lt;span style=&quot;color: rgba(0, 0, 0, 0); font-family: monospace; font-size: 0px; text-align: start; background-color: rgb(251, 251, 251);&quot;&gt;%3CmxGraphModel%3E%3Croot%3E%3CmxCell%20id%3D%220%22%2F%3E%3CmxCell%20id%3D%221%22%20parent%3D%220%22%2F%3E%3CmxCell%20id%3D%222%22%20value%3D%22%E7%A7%92%E7%BA%A7%E5%BB%B6%E8%BF%9F%22%20style%3D%22edgeLabel%3Bhtml%3D1%3Balign%3Dcenter%3BverticalAlign%3Dmiddle%3Bresizable%3D0%3Bpoints%3D%5B%5D%3Bsketch%3D1%3BhachureGap%3D4%3Bjiggle%3D2%3BcurveFitting%3D1%3BfontFamily%3DHelvetica%3BfontStyle%3D1%3BfontColor%3D%233399FF%3B%22%20vertex%3D%221%22%20connectable%3D%220%22%20parent%3D%221%22%3E%3CmxGeometry%20x%3D%22116%22%20y%3D%22575%22%20as%3D%22geometry%22%2F%3E%3C%2FmxCell%3E%3C%2Froot%3E%3C%2FmxGraphModel%3E&lt;/span&gt;" style="edgeLabel;html=1;align=center;verticalAlign=middle;resizable=0;points=[];sketch=1;hachureGap=4;jiggle=2;curveFitting=1;fontFamily=Architects Daughter;fontSource=https%3A%2F%2Ffonts.googleapis.com%2Fcss%3Ffamily%3DArchitects%2BDaughter;" vertex="1" connectable="0" parent="9IymqekHmeZptXaVo8Cj-13">
          <mxGeometry x="0.6857" y="-1" relative="1" as="geometry">
            <mxPoint as="offset" />
          </mxGeometry>
        </mxCell>
        <mxCell id="9IymqekHmeZptXaVo8Cj-17" value="秒级延迟" style="edgeLabel;html=1;align=center;verticalAlign=middle;resizable=0;points=[];sketch=1;hachureGap=4;jiggle=2;curveFitting=1;fontFamily=Helvetica;fontStyle=1;fontColor=#3399FF;" vertex="1" connectable="0" parent="1">
          <mxGeometry x="130" y="610" as="geometry">
            <mxPoint x="-14" y="175" as="offset" />
          </mxGeometry>
        </mxCell>
        <mxCell id="9IymqekHmeZptXaVo8Cj-18" value="秒级延迟" style="edgeLabel;html=1;align=center;verticalAlign=middle;resizable=0;points=[];sketch=1;hachureGap=4;jiggle=2;curveFitting=1;fontFamily=Helvetica;fontStyle=1;fontColor=#3399FF;" vertex="1" connectable="0" parent="1">
          <mxGeometry x="130" y="100" as="geometry">
            <mxPoint x="-14" y="175" as="offset" />
          </mxGeometry>
        </mxCell>
        <mxCell id="9IymqekHmeZptXaVo8Cj-19" value="直播平台" style="text;html=1;align=center;verticalAlign=middle;whiteSpace=wrap;rounded=0;fontFamily=Helvetica;fontStyle=1;fontSize=16;" vertex="1" parent="1">
          <mxGeometry x="339" y="380" width="130" height="30" as="geometry" />
        </mxCell>
        <mxCell id="9IymqekHmeZptXaVo8Cj-31" style="edgeStyle=orthogonalEdgeStyle;rounded=0;hachureGap=4;orthogonalLoop=1;jettySize=auto;html=1;exitX=1;exitY=0.5;exitDx=0;exitDy=0;entryX=0;entryY=0.5;entryDx=0;entryDy=0;fontFamily=Architects Daughter;fontSource=https%3A%2F%2Ffonts.googleapis.com%2Fcss%3Ffamily%3DArchitects%2BDaughter;flowAnimation=1;" edge="1" parent="1" source="9IymqekHmeZptXaVo8Cj-20" target="9IymqekHmeZptXaVo8Cj-25">
          <mxGeometry relative="1" as="geometry" />
        </mxCell>
        <mxCell id="9IymqekHmeZptXaVo8Cj-20" value="" style="rounded=0;whiteSpace=wrap;html=1;sketch=1;hachureGap=4;jiggle=2;curveFitting=1;fontFamily=Architects Daughter;fontSource=https%3A%2F%2Ffonts.googleapis.com%2Fcss%3Ffamily%3DArchitects%2BDaughter;fillColor=#d5e8d4;strokeColor=#82b366;" vertex="1" parent="1">
          <mxGeometry x="150" y="420" width="180" height="100" as="geometry" />
        </mxCell>
        <mxCell id="9IymqekHmeZptXaVo8Cj-21" value="" style="image;points=[];aspect=fixed;html=1;align=center;shadow=1;dashed=0;image=img/lib/allied_telesis/media_converters/Media_Converter_Standalone_POE.svg;hachureGap=4;fontFamily=Architects Daughter;fontSource=https%3A%2F%2Ffonts.googleapis.com%2Fcss%3Ffamily%3DArchitects%2BDaughter;" vertex="1" parent="1">
          <mxGeometry x="160" y="450" width="73.55" height="60" as="geometry" />
        </mxCell>
        <mxCell id="9IymqekHmeZptXaVo8Cj-22" value="视频压缩" style="text;html=1;align=center;verticalAlign=middle;resizable=0;points=[];autosize=1;strokeColor=none;fillColor=none;fontFamily=Helvetica;fontStyle=1;fontSize=12;rounded=0;shadow=0;" vertex="1" parent="1">
          <mxGeometry x="160" y="425.26" width="70" height="30" as="geometry" />
        </mxCell>
        <mxCell id="9IymqekHmeZptXaVo8Cj-23" value="" style="outlineConnect=0;fontColor=#232F3E;gradientColor=none;fillColor=#232F3D;strokeColor=none;dashed=0;verticalLabelPosition=bottom;verticalAlign=top;align=center;html=1;fontSize=12;fontStyle=0;aspect=fixed;pointerEvents=1;shape=mxgraph.aws4.source_code;hachureGap=4;fontFamily=Architects Daughter;fontSource=https%3A%2F%2Ffonts.googleapis.com%2Fcss%3Ffamily%3DArchitects%2BDaughter;shadow=1;" vertex="1" parent="1">
          <mxGeometry x="270" y="455.26" width="40" height="54.74" as="geometry" />
        </mxCell>
        <mxCell id="9IymqekHmeZptXaVo8Cj-24" value="编码" style="text;html=1;align=center;verticalAlign=middle;resizable=0;points=[];autosize=1;strokeColor=none;fillColor=none;fontFamily=Helvetica;fontStyle=1;fontSize=12;rounded=0;shadow=0;" vertex="1" parent="1">
          <mxGeometry x="265" y="425.26" width="50" height="30" as="geometry" />
        </mxCell>
        <mxCell id="9IymqekHmeZptXaVo8Cj-32" style="edgeStyle=orthogonalEdgeStyle;rounded=0;hachureGap=4;orthogonalLoop=1;jettySize=auto;html=1;exitX=1;exitY=0.5;exitDx=0;exitDy=0;entryX=0;entryY=0.5;entryDx=0;entryDy=0;fontFamily=Architects Daughter;fontSource=https%3A%2F%2Ffonts.googleapis.com%2Fcss%3Ffamily%3DArchitects%2BDaughter;flowAnimation=1;" edge="1" parent="1" source="9IymqekHmeZptXaVo8Cj-25" target="9IymqekHmeZptXaVo8Cj-28">
          <mxGeometry relative="1" as="geometry" />
        </mxCell>
        <mxCell id="9IymqekHmeZptXaVo8Cj-25" value="" style="rounded=0;whiteSpace=wrap;html=1;sketch=1;hachureGap=4;jiggle=2;curveFitting=1;fontFamily=Architects Daughter;fontSource=https%3A%2F%2Ffonts.googleapis.com%2Fcss%3Ffamily%3DArchitects%2BDaughter;fillColor=#d5e8d4;strokeColor=#82b366;" vertex="1" parent="1">
          <mxGeometry x="390" y="420" width="140" height="100" as="geometry" />
        </mxCell>
        <mxCell id="9IymqekHmeZptXaVo8Cj-26" value="" style="outlineConnect=0;fontColor=#232F3E;gradientColor=none;fillColor=#ED7100;strokeColor=none;dashed=0;verticalLabelPosition=bottom;verticalAlign=top;align=center;html=1;fontSize=12;fontStyle=0;aspect=fixed;shape=mxgraph.aws4.blockchain_resource;hachureGap=4;fontFamily=Architects Daughter;fontSource=https%3A%2F%2Ffonts.googleapis.com%2Fcss%3Ffamily%3DArchitects%2BDaughter;shadow=1;" vertex="1" parent="1">
          <mxGeometry x="403.5" y="473.78" width="113" height="36.22" as="geometry" />
        </mxCell>
        <mxCell id="9IymqekHmeZptXaVo8Cj-27" value="剪辑 分割" style="text;html=1;align=center;verticalAlign=middle;resizable=0;points=[];autosize=1;strokeColor=none;fillColor=none;fontFamily=Helvetica;fontStyle=1;fontSize=12;rounded=0;shadow=0;" vertex="1" parent="1">
          <mxGeometry x="425" y="435" width="70" height="30" as="geometry" />
        </mxCell>
        <mxCell id="9IymqekHmeZptXaVo8Cj-39" style="edgeStyle=orthogonalEdgeStyle;rounded=0;hachureGap=4;orthogonalLoop=1;jettySize=auto;html=1;exitX=0.5;exitY=1;exitDx=0;exitDy=0;entryX=0.5;entryY=0;entryDx=0;entryDy=0;fontFamily=Architects Daughter;fontSource=https%3A%2F%2Ffonts.googleapis.com%2Fcss%3Ffamily%3DArchitects%2BDaughter;flowAnimation=1;curved=1;" edge="1" parent="1" source="9IymqekHmeZptXaVo8Cj-28" target="9IymqekHmeZptXaVo8Cj-36">
          <mxGeometry relative="1" as="geometry" />
        </mxCell>
        <mxCell id="9IymqekHmeZptXaVo8Cj-44" style="edgeStyle=orthogonalEdgeStyle;rounded=0;hachureGap=4;orthogonalLoop=1;jettySize=auto;html=1;exitX=0.75;exitY=1;exitDx=0;exitDy=0;entryX=0.5;entryY=0;entryDx=0;entryDy=0;fontFamily=Architects Daughter;fontSource=https%3A%2F%2Ffonts.googleapis.com%2Fcss%3Ffamily%3DArchitects%2BDaughter;flowAnimation=1;curved=1;" edge="1" parent="1" source="9IymqekHmeZptXaVo8Cj-28" target="9IymqekHmeZptXaVo8Cj-40">
          <mxGeometry relative="1" as="geometry" />
        </mxCell>
        <mxCell id="9IymqekHmeZptXaVo8Cj-28" value="" style="rounded=0;whiteSpace=wrap;html=1;sketch=1;hachureGap=4;jiggle=2;curveFitting=1;fontFamily=Architects Daughter;fontSource=https%3A%2F%2Ffonts.googleapis.com%2Fcss%3Ffamily%3DArchitects%2BDaughter;fillColor=#d5e8d4;strokeColor=#82b366;" vertex="1" parent="1">
          <mxGeometry x="590" y="420" width="140" height="100" as="geometry" />
        </mxCell>
        <mxCell id="9IymqekHmeZptXaVo8Cj-29" value="" style="image;points=[];aspect=fixed;html=1;align=center;shadow=1;dashed=0;image=img/lib/allied_telesis/computer_and_terminals/Server_Desktop.svg;hachureGap=4;fontFamily=Architects Daughter;fontSource=https%3A%2F%2Ffonts.googleapis.com%2Fcss%3Ffamily%3DArchitects%2BDaughter;" vertex="1" parent="1">
          <mxGeometry x="610" y="443" width="42.599999999999994" height="54" as="geometry" />
        </mxCell>
        <mxCell id="9IymqekHmeZptXaVo8Cj-30" value="流媒体&lt;br&gt;服务器" style="text;html=1;align=center;verticalAlign=middle;resizable=0;points=[];autosize=1;strokeColor=none;fillColor=none;fontFamily=Helvetica;fontStyle=1;fontSize=12;rounded=0;shadow=0;" vertex="1" parent="1">
          <mxGeometry x="660" y="450" width="60" height="40" as="geometry" />
        </mxCell>
        <mxCell id="9IymqekHmeZptXaVo8Cj-33" value="打包" style="text;html=1;align=center;verticalAlign=middle;resizable=0;points=[];autosize=1;strokeColor=none;fillColor=none;fontFamily=Architects Daughter;fontSource=https%3A%2F%2Ffonts.googleapis.com%2Fcss%3Ffamily%3DArchitects%2BDaughter;" vertex="1" parent="1">
          <mxGeometry x="538" y="450" width="50" height="30" as="geometry" />
        </mxCell>
        <mxCell id="9IymqekHmeZptXaVo8Cj-34" value="RTMP" style="text;html=1;align=center;verticalAlign=middle;resizable=0;points=[];autosize=1;strokeColor=none;fillColor=none;fontFamily=Architects Daughter;fontSource=https%3A%2F%2Ffonts.googleapis.com%2Fcss%3Ffamily%3DArchitects%2BDaughter;" vertex="1" parent="1">
          <mxGeometry x="530" y="467.63" width="60" height="30" as="geometry" />
        </mxCell>
        <mxCell id="9IymqekHmeZptXaVo8Cj-35" style="edgeStyle=orthogonalEdgeStyle;rounded=0;hachureGap=4;orthogonalLoop=1;jettySize=auto;html=1;exitX=0.5;exitY=1;exitDx=0;exitDy=0;fontFamily=Architects Daughter;fontSource=https%3A%2F%2Ffonts.googleapis.com%2Fcss%3Ffamily%3DArchitects%2BDaughter;flowAnimation=1;curved=1;" edge="1" parent="1" source="9IymqekHmeZptXaVo8Cj-6">
          <mxGeometry relative="1" as="geometry">
            <mxPoint x="234" y="420" as="targetPoint" />
          </mxGeometry>
        </mxCell>
        <mxCell id="9IymqekHmeZptXaVo8Cj-36" value="" style="rounded=0;whiteSpace=wrap;html=1;sketch=1;hachureGap=4;jiggle=2;curveFitting=1;fontFamily=Architects Daughter;fontSource=https%3A%2F%2Ffonts.googleapis.com%2Fcss%3Ffamily%3DArchitects%2BDaughter;fillColor=#e1d5e7;strokeColor=#9673a6;" vertex="1" parent="1">
          <mxGeometry x="185" y="630" width="210" height="130" as="geometry" />
        </mxCell>
        <mxCell id="9IymqekHmeZptXaVo8Cj-37" value="" style="points=[];aspect=fixed;html=1;align=center;shadow=1;dashed=0;fillColor=#FF6A00;strokeColor=none;shape=mxgraph.alibaba_cloud.pcdn_p2p_cdn;hachureGap=4;fontFamily=Architects Daughter;fontSource=https%3A%2F%2Ffonts.googleapis.com%2Fcss%3Ffamily%3DArchitects%2BDaughter;" vertex="1" parent="1">
          <mxGeometry x="220" y="655" width="68.64" height="80" as="geometry" />
        </mxCell>
        <mxCell id="9IymqekHmeZptXaVo8Cj-38" value="CDN分发和缓存" style="text;html=1;align=center;verticalAlign=middle;whiteSpace=wrap;rounded=0;fontFamily=Helvetica;fontStyle=1;fontSize=12;shadow=0;" vertex="1" parent="1">
          <mxGeometry x="315" y="680" width="60" height="30" as="geometry" />
        </mxCell>
        <mxCell id="9IymqekHmeZptXaVo8Cj-43" style="edgeStyle=orthogonalEdgeStyle;rounded=0;hachureGap=4;orthogonalLoop=1;jettySize=auto;html=1;exitX=0;exitY=0.5;exitDx=0;exitDy=0;entryX=1;entryY=0.5;entryDx=0;entryDy=0;fontFamily=Architects Daughter;fontSource=https%3A%2F%2Ffonts.googleapis.com%2Fcss%3Ffamily%3DArchitects%2BDaughter;flowAnimation=1;" edge="1" parent="1" source="9IymqekHmeZptXaVo8Cj-40" target="9IymqekHmeZptXaVo8Cj-36">
          <mxGeometry relative="1" as="geometry" />
        </mxCell>
        <mxCell id="9IymqekHmeZptXaVo8Cj-40" value="" style="rounded=0;whiteSpace=wrap;html=1;sketch=1;hachureGap=4;jiggle=2;curveFitting=1;fontFamily=Architects Daughter;fontSource=https%3A%2F%2Ffonts.googleapis.com%2Fcss%3Ffamily%3DArchitects%2BDaughter;fillColor=#e1d5e7;strokeColor=#9673a6;" vertex="1" parent="1">
          <mxGeometry x="469" y="630" width="210" height="130" as="geometry" />
        </mxCell>
        <mxCell id="9IymqekHmeZptXaVo8Cj-41" value="视频存储&lt;br&gt;用于回放和下载" style="text;html=1;align=center;verticalAlign=middle;whiteSpace=wrap;rounded=0;fontFamily=Helvetica;fontStyle=1;fontSize=12;shadow=0;" vertex="1" parent="1">
          <mxGeometry x="600.65" y="660" width="61.3" height="70" as="geometry" />
        </mxCell>
        <mxCell id="9IymqekHmeZptXaVo8Cj-42" value="" style="pointerEvents=1;shadow=1;dashed=0;html=1;strokeColor=none;fillColor=#505050;labelPosition=center;verticalLabelPosition=bottom;verticalAlign=top;outlineConnect=0;align=center;shape=mxgraph.office.devices.hard_disk;hachureGap=4;fontFamily=Architects Daughter;fontSource=https%3A%2F%2Ffonts.googleapis.com%2Fcss%3Ffamily%3DArchitects%2BDaughter;" vertex="1" parent="1">
          <mxGeometry x="494" y="655" width="66" height="80" as="geometry" />
        </mxCell>
        <mxCell id="9IymqekHmeZptXaVo8Cj-45" value="" style="rounded=0;whiteSpace=wrap;html=1;hachureGap=4;fontFamily=Architects Daughter;fontSource=https%3A%2F%2Ffonts.googleapis.com%2Fcss%3Ffamily%3DArchitects%2BDaughter;shadow=0;fillColor=#f5f5f5;fontColor=#333333;strokeColor=#666666;sketch=1;curveFitting=1;jiggle=2;" vertex="1" parent="1">
          <mxGeometry x="140" y="820" width="600" height="180" as="geometry" />
        </mxCell>
        <mxCell id="9IymqekHmeZptXaVo8Cj-46" value="播放设备" style="text;html=1;align=center;verticalAlign=middle;resizable=0;points=[];autosize=1;strokeColor=none;fillColor=none;fontFamily=Helvetica;fontStyle=1;fontSize=16;" vertex="1" parent="1">
          <mxGeometry x="369" y="830" width="90" height="30" as="geometry" />
        </mxCell>
        <mxCell id="9IymqekHmeZptXaVo8Cj-51" style="edgeStyle=orthogonalEdgeStyle;rounded=0;hachureGap=4;orthogonalLoop=1;jettySize=auto;html=1;exitX=1;exitY=0.5;exitDx=0;exitDy=0;fontFamily=Architects Daughter;fontSource=https%3A%2F%2Ffonts.googleapis.com%2Fcss%3Ffamily%3DArchitects%2BDaughter;flowAnimation=1;" edge="1" parent="1" source="9IymqekHmeZptXaVo8Cj-47">
          <mxGeometry relative="1" as="geometry">
            <mxPoint x="490" y="930" as="targetPoint" />
          </mxGeometry>
        </mxCell>
        <mxCell id="9IymqekHmeZptXaVo8Cj-47" value="" style="rounded=0;whiteSpace=wrap;html=1;sketch=1;hachureGap=4;jiggle=2;curveFitting=1;fontFamily=Architects Daughter;fontSource=https%3A%2F%2Ffonts.googleapis.com%2Fcss%3Ffamily%3DArchitects%2BDaughter;fillColor=#fff2cc;strokeColor=#d6b656;" vertex="1" parent="1">
          <mxGeometry x="185" y="880" width="165" height="100" as="geometry" />
        </mxCell>
        <mxCell id="9IymqekHmeZptXaVo8Cj-48" value="" style="dashed=0;outlineConnect=0;html=1;align=center;labelPosition=center;verticalLabelPosition=bottom;verticalAlign=top;shape=mxgraph.webicons.designfloat;fillColor=#247BE0;gradientColor=#0A1F42;hachureGap=4;fontFamily=Architects Daughter;fontSource=https%3A%2F%2Ffonts.googleapis.com%2Fcss%3Ffamily%3DArchitects%2BDaughter;shadow=1;" vertex="1" parent="1">
          <mxGeometry x="200" y="904.5" width="60" height="55.5" as="geometry" />
        </mxCell>
        <mxCell id="9IymqekHmeZptXaVo8Cj-49" value="解码与&lt;br&gt;解压缩" style="text;html=1;align=center;verticalAlign=middle;resizable=0;points=[];autosize=1;strokeColor=none;fillColor=none;fontFamily=Helvetica;fontStyle=1;fontSize=12;rounded=0;shadow=0;" vertex="1" parent="1">
          <mxGeometry x="279" y="912.25" width="60" height="40" as="geometry" />
        </mxCell>
        <mxCell id="9IymqekHmeZptXaVo8Cj-50" value="" style="rounded=0;whiteSpace=wrap;html=1;sketch=1;hachureGap=4;jiggle=2;curveFitting=1;fontFamily=Architects Daughter;fontSource=https%3A%2F%2Ffonts.googleapis.com%2Fcss%3Ffamily%3DArchitects%2BDaughter;fillColor=#fff2cc;strokeColor=#d6b656;" vertex="1" parent="1">
          <mxGeometry x="500" y="880" width="198.5" height="100" as="geometry" />
        </mxCell>
        <mxCell id="9IymqekHmeZptXaVo8Cj-52" style="edgeStyle=orthogonalEdgeStyle;rounded=0;hachureGap=4;orthogonalLoop=1;jettySize=auto;html=1;fontFamily=Architects Daughter;fontSource=https%3A%2F%2Ffonts.googleapis.com%2Fcss%3Ffamily%3DArchitects%2BDaughter;flowAnimation=1;" edge="1" parent="1">
          <mxGeometry relative="1" as="geometry">
            <mxPoint x="290" y="770" as="sourcePoint" />
            <mxPoint x="290" y="870" as="targetPoint" />
          </mxGeometry>
        </mxCell>
        <mxCell id="9IymqekHmeZptXaVo8Cj-54" value="视频&lt;br&gt;播放器" style="text;html=1;align=center;verticalAlign=middle;resizable=0;points=[];autosize=1;strokeColor=none;fillColor=none;fontFamily=Helvetica;fontStyle=1;fontSize=12;rounded=0;shadow=0;" vertex="1" parent="1">
          <mxGeometry x="630" y="910" width="60" height="40" as="geometry" />
        </mxCell>
        <mxCell id="9IymqekHmeZptXaVo8Cj-55" value="" style="shape=image;html=1;verticalAlign=top;verticalLabelPosition=bottom;labelBackgroundColor=#ffffff;imageAspect=0;aspect=fixed;image=https://cdn1.iconfinder.com/data/icons/social-media-rounded-corners/512/Rounded_Youtube3_svg-128.png;hachureGap=4;fontFamily=Architects Daughter;fontSource=https%3A%2F%2Ffonts.googleapis.com%2Fcss%3Ffamily%3DArchitects%2BDaughter;shadow=1;" vertex="1" parent="1">
          <mxGeometry x="512.5" y="908.5" width="41.5" height="41.5" as="geometry" />
        </mxCell>
        <mxCell id="9IymqekHmeZptXaVo8Cj-56" value="" style="outlineConnect=0;dashed=0;verticalLabelPosition=bottom;verticalAlign=top;align=center;html=1;shape=mxgraph.aws3.traditional_server;fillColor=#7D7C7C;gradientColor=none;hachureGap=4;fontFamily=Architects Daughter;fontSource=https%3A%2F%2Ffonts.googleapis.com%2Fcss%3Ffamily%3DArchitects%2BDaughter;shadow=1;" vertex="1" parent="1">
          <mxGeometry x="576" y="890" width="44" height="79.13" as="geometry" />
        </mxCell>
      </root>
    </mxGraphModel>
  </diagram>
</mxfile>
